<mxfile host="app.diagrams.net" modified="2021-12-21T09:45:31.329Z" agent="5.0 (Macintosh; Intel Mac OS X 10_15_7) AppleWebKit/537.36 (KHTML, like Gecko) Chrome/96.0.4664.110 Safari/537.36" etag="y7975Lhm7RElLYiqEkyB" version="16.0.0" type="github">
  <diagram id="R2lEEEUBdFMjLlhIrx00" name="Page-1">
    <mxGraphModel dx="1426" dy="794" grid="0" gridSize="10" guides="1" tooltips="1" connect="1" arrows="1" fold="1" page="1" pageScale="1" pageWidth="850" pageHeight="1100" math="0" shadow="1" extFonts="Permanent Marker^https://fonts.googleapis.com/css?family=Permanent+Marker">
      <root>
        <mxCell id="0" />
        <mxCell id="1" parent="0" />
        <mxCell id="tN4z6ON6ynWLpabo7vRz-5" value="Block" style="swimlane;" vertex="1" parent="1">
          <mxGeometry x="170" y="70" width="495" height="270" as="geometry" />
        </mxCell>
        <mxCell id="tN4z6ON6ynWLpabo7vRz-6" value="reference_blocks" style="ellipse;whiteSpace=wrap;html=1;" vertex="1" parent="tN4z6ON6ynWLpabo7vRz-5">
          <mxGeometry x="25" y="50" width="120" height="80" as="geometry" />
        </mxCell>
        <mxCell id="tN4z6ON6ynWLpabo7vRz-7" value="be_referenced_blocks" style="ellipse;whiteSpace=wrap;html=1;" vertex="1" parent="tN4z6ON6ynWLpabo7vRz-5">
          <mxGeometry x="25" y="160" width="120" height="80" as="geometry" />
        </mxCell>
        <mxCell id="tN4z6ON6ynWLpabo7vRz-8" value="Context" style="rounded=0;whiteSpace=wrap;html=1;align=left;verticalAlign=top;" vertex="1" parent="tN4z6ON6ynWLpabo7vRz-5">
          <mxGeometry x="175" y="30" width="305" height="230" as="geometry" />
        </mxCell>
        <mxCell id="tN4z6ON6ynWLpabo7vRz-19" value="keywords" style="ellipse;whiteSpace=wrap;html=1;" vertex="1" parent="tN4z6ON6ynWLpabo7vRz-5">
          <mxGeometry x="187.5" y="50" width="120" height="80" as="geometry" />
        </mxCell>
        <mxCell id="tN4z6ON6ynWLpabo7vRz-9" value="Data Structure" style="swimlane;" vertex="1" parent="1">
          <mxGeometry x="170" y="400" width="500" height="170" as="geometry" />
        </mxCell>
        <mxCell id="tN4z6ON6ynWLpabo7vRz-10" value="Heap" style="shape=umlBoundary;whiteSpace=wrap;html=1;" vertex="1" parent="tN4z6ON6ynWLpabo7vRz-9">
          <mxGeometry x="24" y="50" width="100" height="80" as="geometry" />
        </mxCell>
        <mxCell id="tN4z6ON6ynWLpabo7vRz-11" value="Queue" style="shape=umlBoundary;whiteSpace=wrap;html=1;" vertex="1" parent="tN4z6ON6ynWLpabo7vRz-9">
          <mxGeometry x="145" y="50" width="100" height="80" as="geometry" />
        </mxCell>
        <mxCell id="tN4z6ON6ynWLpabo7vRz-12" value="Tree" style="shape=umlBoundary;whiteSpace=wrap;html=1;" vertex="1" parent="tN4z6ON6ynWLpabo7vRz-9">
          <mxGeometry x="245" y="50" width="100" height="80" as="geometry" />
        </mxCell>
        <mxCell id="tN4z6ON6ynWLpabo7vRz-13" value="...." style="shape=umlBoundary;whiteSpace=wrap;html=1;" vertex="1" parent="tN4z6ON6ynWLpabo7vRz-9">
          <mxGeometry x="360" y="50" width="100" height="80" as="geometry" />
        </mxCell>
        <mxCell id="tN4z6ON6ynWLpabo7vRz-14" style="edgeStyle=orthogonalEdgeStyle;rounded=0;orthogonalLoop=1;jettySize=auto;html=1;entryX=0.61;entryY=-0.012;entryDx=0;entryDy=0;entryPerimeter=0;" edge="1" parent="1" source="tN4z6ON6ynWLpabo7vRz-7" target="tN4z6ON6ynWLpabo7vRz-10">
          <mxGeometry relative="1" as="geometry" />
        </mxCell>
        <mxCell id="tN4z6ON6ynWLpabo7vRz-15" style="edgeStyle=orthogonalEdgeStyle;rounded=0;orthogonalLoop=1;jettySize=auto;html=1;entryX=0.6;entryY=-0.012;entryDx=0;entryDy=0;entryPerimeter=0;" edge="1" parent="1" source="tN4z6ON6ynWLpabo7vRz-6" target="tN4z6ON6ynWLpabo7vRz-12">
          <mxGeometry relative="1" as="geometry">
            <Array as="points">
              <mxPoint x="320" y="160" />
              <mxPoint x="320" y="370" />
              <mxPoint x="475" y="370" />
            </Array>
          </mxGeometry>
        </mxCell>
        <mxCell id="tN4z6ON6ynWLpabo7vRz-18" value="implements" style="edgeLabel;html=1;align=center;verticalAlign=middle;resizable=0;points=[];" vertex="1" connectable="0" parent="tN4z6ON6ynWLpabo7vRz-15">
          <mxGeometry x="0.2738" y="-2" relative="1" as="geometry">
            <mxPoint as="offset" />
          </mxGeometry>
        </mxCell>
        <mxCell id="tN4z6ON6ynWLpabo7vRz-16" style="edgeStyle=orthogonalEdgeStyle;rounded=0;orthogonalLoop=1;jettySize=auto;html=1;entryX=0.54;entryY=0.013;entryDx=0;entryDy=0;entryPerimeter=0;" edge="1" parent="1" source="tN4z6ON6ynWLpabo7vRz-7" target="tN4z6ON6ynWLpabo7vRz-11">
          <mxGeometry relative="1" as="geometry" />
        </mxCell>
        <mxCell id="tN4z6ON6ynWLpabo7vRz-17" value="implements" style="edgeLabel;html=1;align=center;verticalAlign=middle;resizable=0;points=[];" vertex="1" connectable="0" parent="tN4z6ON6ynWLpabo7vRz-16">
          <mxGeometry x="-0.1844" y="-1" relative="1" as="geometry">
            <mxPoint as="offset" />
          </mxGeometry>
        </mxCell>
      </root>
    </mxGraphModel>
  </diagram>
</mxfile>
